<svg id="Layer_1" data-name="Layer 1" xmlns="http://www.w3.org/2000/svg" viewBox="0 0 1124.87 895.44"><defs><style>.cls-1{fill:#2563eb;}</style></defs><path class="cls-1" d="M100.78,496.25l93.05-326.72A233.49,233.49,0,0,1,418.39,0h675.47a31,31,0,0,1,28.06,44.07L1021.8,258.46a31,31,0,0,1-28.06,17.87H492.21a31,31,0,0,0-29.4,21.23l-45,135.86,537.26-4.17a31,31,0,0,1,29,42.35L930.87,606.42a162.46,162.46,0,0,1-151.1,102.76H509.4L453.32,874.42a31,31,0,0,1-29.64,21l-393-3.88A31,31,0,0,1,1.56,851l40.35-123.1A152.8,152.8,0,0,1,187.76,622.63l133.06.57a31,31,0,0,0,29-19.79l9.89-25.56a31,31,0,0,0-28.88-42.15H130.56A31,31,0,0,1,100.78,496.25Z"/></svg>